<svg width="375" height="284" viewBox="0 0 375 284" fill="none" xmlns="http://www.w3.org/2000/svg">
<path d="M-8.53364 221.547C-4.39483 231.279 20.8855 218.639 26.3666 214.724C27.8208 213.717 29.275 212.486 30.6173 211.368C31.2884 210.809 31.8477 210.249 32.407 209.69C35.0917 207.229 37.6644 204.433 40.2372 201.636C40.6847 201.189 41.1321 200.629 41.5795 200.182C44.1523 197.274 46.7251 194.365 49.4097 191.569C49.969 191.009 50.5283 190.45 51.0876 189.891C52.0944 188.884 53.1011 187.877 54.2197 186.871C55.4501 185.752 56.6806 184.633 58.0229 183.627C58.5822 183.067 59.2534 182.62 59.9245 182.172C62.1617 180.383 64.3989 178.817 66.748 177.251C67.4191 176.803 67.9784 176.356 68.6496 176.02C71.1105 174.454 73.5714 172.888 76.0323 171.322L77.4865 170.427C80.7305 168.414 83.9744 166.4 87.2183 164.387C87.6658 164.163 88.1132 163.827 88.5606 163.604C89.6792 162.821 90.9097 162.038 92.0283 161.367C104.668 152.865 116.637 141.903 121 127.361C113.953 139.666 101.089 148.391 87.1065 150.181C79.8356 151.187 72.341 150.404 65.4057 152.865C57.5755 155.55 51.6469 161.814 45.0472 166.624C34.5324 174.23 27.9326 168.078 15.8518 172.553C-5.73714 180.495 1.75746 196.043 -1.71019 201.972C-4.73041 206.11 -10.7708 216.29 -8.53364 221.547Z" fill="url(#paint0_linear)"/>
<path opacity="0.37" d="M75.6968 171.21C75.2493 169.421 75.2493 165.282 75.2493 164.611C75.473 161.59 76.4798 159.129 77.3747 156.221C76.4798 159.241 76.1442 162.485 76.4798 165.617C76.4798 166.065 77.1509 168.526 77.1509 170.204L75.6968 171.21Z" fill="#FFF7FB"/>
<path opacity="0.37" d="M88.2251 163.492C88.2251 163.268 88.1132 163.156 88.1132 163.044C87.7776 159.912 88.1132 156.668 89.0081 153.648C88.1132 156.445 87.1065 159.018 86.9946 162.038C86.9946 162.373 86.9946 163.268 86.9946 164.387C87.3302 164.051 87.7776 163.716 88.2251 163.492Z" fill="#FFF7FB"/>
<path opacity="0.37" d="M68.3142 175.908C68.0905 174.119 67.643 172.329 67.643 171.881C67.3075 168.078 67.643 164.163 68.6498 160.584C67.643 164.051 66.4126 166.96 66.1889 170.651C66.1889 171.322 66.077 174.79 66.4126 177.251C67.0837 176.691 67.7549 176.356 68.3142 175.908Z" fill="#FFF7FB"/>
<path opacity="0.37" d="M57.7992 183.515C58.3585 182.955 59.0297 182.508 59.7008 182.061C59.4771 180.271 59.0297 178.481 59.0297 178.034C58.5822 174.23 59.0297 170.315 60.0364 166.736C59.0297 170.203 57.7992 173.112 57.5755 176.803C57.4636 177.362 57.4637 181.054 57.7992 183.515Z" fill="#FFF7FB"/>
<path opacity="0.37" d="M49.2977 191.569C49.857 191.009 50.4163 190.45 50.9756 189.891C50.9756 187.877 50.1926 185.193 50.1926 184.633C49.857 180.83 50.1926 176.915 51.1993 173.336C50.1926 176.803 48.9622 179.712 48.7384 183.403C48.6266 184.186 48.6266 189.443 49.2977 191.569Z" fill="#FFF7FB"/>
<path opacity="0.37" d="M40.2373 201.636C39.2306 200.406 39.3424 193.694 39.3424 192.799C39.5662 189.22 40.7966 186.199 41.8034 182.732C40.6848 186.423 40.3492 190.226 40.7966 194.03C40.9085 194.589 41.8034 198.057 41.5796 200.182L40.2373 201.636Z" fill="#FFF7FB"/>
<path opacity="0.37" d="M30.6173 211.256C29.7224 209.131 29.7224 202.195 29.8343 201.077C30.058 196.714 31.624 193.247 32.8545 189.22C31.5121 193.582 31.1766 198.169 31.624 202.643C31.7359 203.314 32.6307 207.117 32.5189 209.578L30.6173 211.256Z" fill="#FFF7FB"/>
<path d="M-42.1054 244C-36.4691 230.793 -29.8487 218.036 -22.3336 205.818C-22.2441 205.728 -22.1547 205.638 -22.0652 205.548C-22.1547 206.087 -22.2441 205.009 -22.0652 205.548C-17.2341 203.032 -12.403 206.357 -7.30351 207.165C-0.235783 208.243 7.27926 206.357 13.005 201.954C18.7308 197.642 22.6672 190.904 23.6513 183.806C20.1622 188.029 14.5259 189.826 9.15803 190.724C3.79013 191.623 -1.84615 191.713 -7.03511 193.419C-9.54013 194.228 -15.1764 197.103 -18.755 200.517C-18.6656 200.337 -18.5761 200.068 -18.4866 199.888C-16.3395 196.564 -14.1923 193.33 -11.8662 190.095C-6.85619 182.908 -1.48829 175.99 4.14799 169.342C1.19565 176.709 16.7625 177.607 22.9356 175.002C29.6455 172.127 35.0134 166.198 37.25 159.19C27.9456 163.682 17.6572 157.573 9.06857 163.682C12.8261 159.46 16.6731 155.327 20.699 151.374C20.699 151.554 20.7885 151.643 20.7885 151.823C21.6831 153.979 28.9298 152.632 30.7191 152.272C38.7709 150.925 43.1547 146.522 49.5067 142.21C46.3754 144.276 42.439 144.546 38.6814 144.456C34.9239 144.366 31.0769 144.007 27.4983 145.085C27.2299 145.175 26.9615 145.265 26.6037 145.444C29.1982 142.929 31.8821 140.503 34.5661 138.167C34.9239 138.437 35.3712 138.706 35.8186 138.886C41.9916 141.581 50.8487 133.945 54.4273 129.722C58.4532 125.05 61.2266 119.48 64 114C59.9741 116.605 55.2324 117.773 50.5803 119.031C45.9281 120.289 41.2759 121.816 37.6079 124.961C34.5661 127.656 31.0769 134.035 33.8503 137.449C30.2717 140.593 26.6931 143.917 23.2935 147.241C23.5619 146.792 23.7408 146.253 24.0092 145.624C26.3353 138.886 26.9615 131.16 26.8721 124.062C26.8721 123.164 26.5142 120.828 26.5142 120.828C26.5142 120.828 24.4565 122.176 23.9197 122.625C20.8779 125.41 17.7467 128.195 15.51 131.609C13.2734 135.023 11.9314 139.335 12.7366 143.378C13.8102 148.319 17.3888 151.194 20.4306 150.026C11.9314 158.561 3.8796 167.545 -3.54599 177.068C-3.36706 176.709 -3.09866 176.35 -2.91973 176.08C-1.30936 173.924 0.479935 171.858 2.00084 169.612C9.15803 158.831 9.15803 143.737 2.0903 132.956C2.89549 134.124 -1.48829 144.276 -2.02508 146.073C-3.27759 150.655 -4.44063 155.237 -5.51421 159.909C-6.58779 164.67 -7.39297 169.432 -8.19816 174.193C-8.37709 175.631 -9.98746 182.728 -8.28762 183.178C-9.80853 185.244 -11.3294 187.31 -12.7609 189.377C-14.0134 191.173 -15.2659 192.97 -16.4289 194.767C-14.3712 189.287 -14.0134 183.447 -13.8344 177.518C-13.6555 171.049 -13.3871 164.581 -13.2082 158.202C-13.2082 157.214 -13.4766 147.511 -13.4766 147.511C-13.4766 147.511 -18.2182 156.854 -18.6656 157.753C-24.3018 167.366 -27.5226 178.416 -27.9699 189.556C-28.1488 193.689 -29.1329 202.673 -25.4649 205.638C-24.8386 206.177 -24.2124 206.357 -23.6756 206.357C-31.1012 218.395 -37.5426 230.883 -43 243.641L-42.1054 244Z" fill="url(#paint1_linear)"/>
<path d="M-8.86945 231.279C-8.86945 224.791 -8.53387 213.717 -1.03926 207.788C11.2653 198.056 28.6036 200.629 38.4472 204.768C46.0537 208.012 45.1588 210.585 51.8704 212.263C63.6157 215.171 70.7747 208.459 77.9337 213.046C80.9539 214.947 84.6453 219.198 83.8623 223.113C80.8421 237.767 54.6669 243.472 31.4001 242.8C13.6144 242.353 -0.368105 236.089 -8.86945 231.279Z" fill="url(#paint2_linear)"/>
<path d="M83.8624 223.113C80.8422 237.767 54.667 243.471 31.4002 242.8C13.6145 242.353 -0.256106 236.089 -8.75745 231.279C-8.75745 230.831 -8.75745 230.272 -8.75745 229.713C-8.64559 223.113 -7.86257 213.269 -0.927265 207.9C11.4892 198.168 28.7156 200.741 38.5592 204.88C46.1657 208.124 45.2708 210.697 51.9824 212.374C63.7277 215.283 70.8867 208.571 78.0457 213.157C78.2694 213.269 78.605 213.493 78.8287 213.717C81.5134 215.73 84.5336 219.533 83.8624 223.113Z" fill="#1A1C6C"/>
<path opacity="0.2" d="M78.7167 213.605C76.5914 217.632 72.9 220.764 68.8731 223.001C58.9176 228.482 46.3893 229.042 36.0982 224.344C33.078 223.001 20.4378 218.303 16.9702 218.303C13.2788 218.303 9.58741 218.974 6.0079 220.093C0.414912 221.994 -4.84249 225.238 -8.86945 229.601C-8.75759 223.001 -7.97457 213.158 -1.03926 207.788C11.3772 198.056 28.6036 200.629 38.4472 204.768C46.0537 208.012 45.1588 210.585 51.8704 212.263C63.6157 215.171 70.7747 208.459 77.9337 213.046C78.1574 213.158 78.3812 213.381 78.7167 213.605Z" fill="#6F72D8"/>
<path d="M38.7828 226.021C36.5456 224.567 20.3259 214.724 2.54023 220.988C-14.798 227.14 -22.7401 259.244 -24.418 282.511" stroke="#5A5ED5" stroke-miterlimit="10" stroke-linecap="round" stroke-linejoin="round"/>
<path d="M246.115 220.004C233.181 218.711 213.532 211.436 207.561 194.956C201.967 179.489 211.344 164 213.424 160.799C213.424 160.799 205.459 157.296 206.095 149.956C206.731 142.616 210.557 141.98 210.557 141.98C210.557 141.98 203.228 134.974 206.095 125.09C208.962 115.207 212.152 114.571 212.152 114.571C212.152 114.571 207.032 101.195 215.019 93.8656C223.006 86.5364 229.667 89.7268 229.667 89.7268C229.667 89.7268 239.874 75.6934 253.261 77.3101C266.647 78.9269 273.977 89.7268 273.977 89.7268C273.977 89.7268 272.381 76.3401 287.051 75.0574C292.041 74.6263 296.105 78.9053 297.883 81.4382C301.31 86.31 300.039 92.292 299.155 93.5423C297.883 95.4608 312.865 76.976 330.078 91.9579C337.526 98.4249 337.72 110.443 337.084 114.592C337.019 115.045 341.848 115.379 345.706 118.731C349.22 121.803 351.742 127.839 352.4 129.887C353.672 133.907 354.469 140.417 353.348 144.869C352.574 148.028 350.918 150.902 348.574 153.157C348.574 153.157 353.348 158.546 345.706 168.775C343.665 171.361 342.707 174.637 343.033 177.915C343.357 181.149 347.948 186.538 348.886 193.317C349.123 195.01 348.315 206.176 342.839 213.074C337.364 219.972 327.222 223.281 324.99 223.281C316.066 223.281 311.604 218.172 311.604 218.172C311.604 218.172 306.506 218.819 299.748 215.445C277.092 204.096 264.966 221.891 246.115 220.004Z" fill="#FF8151"/>
<path d="M227.145 132.905C225.229 132.935 223.35 132.382 221.756 131.32C216.086 127.602 215.698 121.436 216.022 117.933C216.022 118.02 216.226 126.739 221.756 130.361C223.455 131.53 225.45 132.195 227.511 132.279C230.624 132.023 233.656 131.159 236.436 129.736C233.704 131.655 230.48 132.755 227.145 132.905Z" fill="black"/>
<path d="M224.914 184.382C222.509 184.357 220.204 183.422 218.46 181.767C216.717 180.111 215.665 177.857 215.515 175.457C215.515 175.565 215.515 175.673 215.515 175.781C215.582 178.239 216.6 180.576 218.355 182.299C220.11 184.022 222.465 184.996 224.924 185.018C229.936 185.018 234.959 181.784 234.959 176.729C234.965 176.625 234.965 176.521 234.959 176.417C234.733 181.245 229.818 184.382 224.914 184.382Z" fill="black"/>
<path d="M333.139 173.755C338.241 176.49 342.283 180.852 344.624 186.147C346.964 191.442 347.469 197.367 346.057 202.982C344.645 208.596 341.398 213.578 336.832 217.137C332.265 220.696 326.641 222.627 320.852 222.624C316.918 222.624 312.229 219.606 311.291 218.01C313.21 220.877 317.694 223.27 322.134 223.27C328.042 223.264 333.772 221.245 338.378 217.546C342.985 213.847 346.194 208.689 347.476 202.922C348.757 197.154 348.036 191.122 345.429 185.82C342.823 180.518 338.488 176.262 333.139 173.755Z" fill="black"/>
<path d="M217.886 157.522C209.738 161.909 205.707 173.259 205.707 183.164C205.707 190.053 208.444 196.66 213.315 201.532C218.186 206.403 224.793 209.14 231.683 209.14C235.617 209.14 240.305 206.111 241.243 204.516C239.335 207.383 234.851 209.776 230.411 209.776C223.522 209.776 216.914 207.039 212.043 202.168C207.172 197.296 204.435 190.689 204.435 183.8C204.435 173.388 209.037 161.672 217.886 157.522Z" fill="black"/>
<path d="M319.569 142.465C319.483 142.869 319.364 143.266 319.213 143.651C318.821 144.717 318.272 145.72 317.586 146.625C316.533 148.01 315.161 149.119 313.587 149.859C311.618 150.744 309.449 151.086 307.303 150.85C305.153 150.661 303.089 149.918 301.311 148.695C299.878 147.699 298.721 146.357 297.948 144.793C297.431 143.774 297.068 142.685 296.87 141.56C296.796 141.154 296.756 140.743 296.751 140.331C296.852 140.724 296.982 141.11 297.139 141.484C297.542 142.488 298.063 143.439 298.691 144.319C299.594 145.584 300.759 146.639 302.108 147.412C303.772 148.315 305.609 148.855 307.497 148.997C309.358 149.207 311.242 149.005 313.016 148.404C314.47 147.863 315.798 147.03 316.918 145.957C317.702 145.207 318.396 144.367 318.987 143.457C319.2 143.138 319.395 142.807 319.569 142.465Z" fill="black"/>
<path d="M344.586 168.764L344.93 168.161C345.135 167.773 345.513 167.266 345.847 166.576C346.795 164.897 347.537 163.109 348.056 161.252C348.541 159.407 348.705 157.493 348.541 155.593C348.48 154.764 348.332 153.944 348.099 153.146C348.258 153.317 348.402 153.501 348.53 153.696C348.888 154.223 349.188 154.786 349.425 155.377C350.223 157.396 350.359 159.615 349.813 161.715C349.226 163.764 348.111 165.622 346.58 167.104C346.137 167.553 345.657 167.964 345.146 168.333L344.586 168.764Z" fill="black"/>
<path d="M307.282 259.539L243.679 258.903L253.81 241.345H295.361L307.282 259.539Z" fill="#F8F8F8"/>
<path d="M295.372 230.492H253.81V241.561H295.372V230.492Z" fill="#FFCAB0"/>
<path d="M192.697 228.271C191.619 229.047 181.725 236.689 182.512 247.802C182.932 253.805 186.295 258.127 187.739 259.981C191.268 264.372 195.92 267.724 201.201 269.682C225.992 279.63 260.159 279.878 260.159 279.878C274.483 279.975 292.494 279.598 313.296 277.938L259.404 248.33C259.404 248.33 250.491 242.143 239.723 236.172C227.123 229.177 219.309 225.394 208.94 225.286C203.385 225.238 197.872 226.251 192.697 228.271Z" fill="white"/>
<path d="M310.849 170.262C310.849 170.262 307.099 167.848 302.96 165.574C302.107 165.093 301.217 164.682 300.297 164.345C298.066 163.526 296.654 163.698 293.572 163.138C289.444 162.383 289.638 161.446 289.638 161.446L284.367 166.188C281.818 168.473 278.516 169.737 275.092 169.737C271.669 169.737 268.366 168.473 265.818 166.188L260.558 161.446C260.558 161.446 260.741 162.383 256.613 163.138C253.53 163.698 252.118 163.526 249.887 164.345C248.973 164.685 248.086 165.095 247.236 165.574C243.118 167.848 239.368 170.262 239.368 170.262L247.624 190.903C247.624 190.903 244.757 231.613 245.835 231.44C246.912 231.268 270.883 231.44 274.839 231.44H275.4C279.344 231.44 303.423 231.268 304.393 231.44C305.363 231.613 302.604 190.914 302.604 190.914L310.849 170.262Z" fill="#A3003F"/>
<path d="M275.658 192.315C274.99 191.959 273.427 193.393 272.489 194.675C270.097 197.909 270.14 201.843 270.441 204.3C259.965 207.857 249.672 212.751 244.272 214.572C241.472 215.423 238.729 216.449 236.059 217.644C231.489 219.8 229.764 221.352 229.15 220.877C228.072 219.929 232.071 213.645 236.263 206.973C239.368 201.972 243.787 194.902 249.068 186.171L249.909 164.323C245.921 164.949 244.272 169.443 241.491 169.993C239.974 170.431 238.678 171.424 237.859 172.774C233.819 177.914 230.585 183.638 228.266 189.75C221.195 203.675 217.649 210.649 216.41 216.178C214.836 223.076 212.993 231.214 217.25 235.105C220.559 238.134 225.992 237.11 230.184 236.409C240.316 234.695 264.858 216.448 271.724 210.541C273.88 208.676 275.658 206.855 275.852 200.84C275.874 200.108 276.251 192.638 275.658 192.315Z" fill="#FFCAB0"/>
<path d="M247.624 190.903C251.754 182.668 252.568 173.162 249.898 164.345C247.956 164.451 246.059 164.973 244.336 165.876C242.348 166.912 240.642 168.418 239.368 170.262L247.624 190.903Z" fill="#8C063D"/>
<path d="M288.711 161.866C284.486 159.031 281.166 153.093 280.638 151.993C280.11 150.894 280.26 138.369 280.26 138.369H270.226C270.226 138.369 270.323 150.894 269.849 151.993C269.374 153.093 266.001 159.031 261.786 161.866C258.003 164.399 275.108 177.624 275.108 177.624C277.889 175.393 292.483 164.399 288.711 161.866Z" fill="#FFCAB0"/>
<path d="M270.237 139.415L280.444 150.484L280.26 138.369L270.237 139.415Z" fill="#E8B0A0"/>
<path d="M262.39 121.092C262.39 121.092 261.075 140.956 275.583 140.299C290.09 139.641 287.277 121.092 287.277 121.092C286.738 115.703 281.78 111.391 275.917 110.982C269.32 110.507 263.08 114.948 262.39 121.092Z" fill="#FFCAB0"/>
<path d="M262.896 121.501C262.896 121.501 258.952 122.073 259.253 124.735C259.301 125.472 259.512 126.19 259.869 126.837C260.227 127.483 260.724 128.043 261.323 128.475C261.951 128.629 262.595 128.705 263.241 128.701" fill="#FCBFAC"/>
<path d="M279.366 108.492C279.366 108.492 280.584 109.483 276.305 113.213C273.513 115.638 271.735 117.815 270.215 118.947C268.059 120.51 267.068 121.296 265.44 121.781C263.58 122.314 261.617 122.374 259.728 121.954C256.547 121.379 253.72 119.574 251.86 116.931C251.375 116.177 251.127 115.853 251.137 115.465C251.224 113.557 256.548 111.068 279.366 108.492Z" fill="#FF8151"/>
<path d="M287.072 121.501C287.072 121.501 291.028 122.073 290.715 124.735C290.668 125.472 290.457 126.19 290.099 126.837C289.742 127.483 289.245 128.043 288.646 128.475C288.018 128.63 287.374 128.706 286.727 128.701" fill="#FCBFAC"/>
<path d="M278.601 110.992C278.601 110.992 270.064 121.771 263.597 122.741C258.607 124.034 253.379 117.945 253.379 117.945C254.475 119.287 255.863 120.361 257.438 121.085C259.013 121.808 260.733 122.16 262.465 122.116C267.908 121.933 278.601 110.992 278.601 110.992Z" fill="black"/>
<path d="M274.893 106.638L278.87 113.967L281.112 117.341L283.009 119.777L286.264 121.404L296.212 120.617L286.242 107.888L274.893 106.638Z" fill="#FF8151"/>
<path d="M275.701 108.233C275.701 108.233 279.668 118.44 284.507 120.758C288.107 122.913 293.744 119.68 293.744 119.68C292.527 120.428 291.16 120.898 289.74 121.056C288.32 121.214 286.883 121.057 285.531 120.596C281.317 119.098 275.701 108.233 275.701 108.233Z" fill="black"/>
<path d="M251.278 165.93C250.372 165.93 249.467 166.037 248.561 166.113C248.443 166.113 248.443 166.328 248.561 166.318C249.467 166.246 250.372 166.181 251.278 166.124C251.407 166.124 251.407 165.919 251.278 165.93Z" fill="#E81F71"/>
<path d="M251.989 168.107L250.016 168.398C249.887 168.398 249.941 168.603 250.016 168.581L252 168.301C252.118 168.301 252.064 168.085 251.946 168.107H251.989Z" fill="#E81F71"/>
<path d="M252.539 170.305C251.892 170.381 251.245 170.446 250.598 170.489C250.48 170.489 250.48 170.693 250.598 170.683C251.245 170.683 251.892 170.575 252.539 170.499C252.657 170.499 252.657 170.295 252.539 170.305Z" fill="#E81F71"/>
<path d="M253.013 172.353L250.943 172.159C250.814 172.159 250.825 172.342 250.943 172.364L253.013 172.569C253.142 172.569 253.142 172.386 253.013 172.375V172.353Z" fill="#E81F71"/>
<path d="M253.595 174.606L251.03 174.25C250.911 174.25 250.857 174.423 251.03 174.434L253.606 174.8C253.724 174.8 253.778 174.628 253.606 174.606H253.595Z" fill="#E81F71"/>
<path d="M253.142 176.794C252.323 176.719 251.504 176.632 250.695 176.535C250.566 176.535 250.566 176.719 250.695 176.74L253.142 176.988C253.261 176.988 253.261 176.805 253.142 176.794Z" fill="#E81F71"/>
<path d="M252.733 179.133C251.892 179.036 251.051 178.928 250.221 178.788C250.092 178.788 250.038 178.961 250.221 178.982C251.073 179.111 251.924 179.23 252.787 179.327C252.905 179.327 252.905 179.155 252.787 179.133H252.733Z" fill="#E81F71"/>
<path d="M252.463 181.526L249.919 181.224C249.79 181.224 249.801 181.407 249.919 181.418L252.463 181.72C252.592 181.72 252.592 181.537 252.463 181.526Z" fill="#E81F71"/>
<path d="M251.493 183.638C250.76 183.509 250.027 183.412 249.337 183.326C249.208 183.326 249.208 183.509 249.337 183.52C250.049 183.606 250.771 183.703 251.493 183.821C251.612 183.821 251.666 183.66 251.493 183.638Z" fill="#E81F71"/>
<path d="M250.405 185.233C249.575 185.104 248.745 184.975 247.915 184.878C247.796 184.878 247.796 185.05 247.915 185.072C248.734 185.169 249.542 185.287 250.351 185.427C250.469 185.427 250.523 185.255 250.351 185.233H250.405Z" fill="#E81F71"/>
<path d="M249.176 187.109C248.529 187.033 247.882 186.969 247.225 186.915C247.106 186.915 247.106 187.109 247.225 187.12C247.882 187.12 248.529 187.227 249.176 187.303C249.305 187.303 249.305 187.12 249.176 187.109Z" fill="#E81F71"/>
<path d="M275.777 238.015C275.893 237.74 275.946 237.442 275.931 237.143C275.916 236.844 275.834 236.553 275.69 236.29C275.572 236.064 275.238 236.29 275.356 236.484C275.466 236.708 275.523 236.953 275.523 237.201C275.523 237.45 275.466 237.695 275.356 237.918C275.259 238.144 275.637 238.241 275.734 238.015H275.777Z" fill="black"/>
<path d="M265.871 251.833L261.797 264.918L274.031 256.306L265.871 251.833Z" fill="#DADADA" fill-opacity="0.3"/>
<path d="M228.729 220.662C224.504 223.044 220.915 226.698 220.958 231.828C220.976 231.949 221.036 232.059 221.128 232.138C221.22 232.217 221.338 232.261 221.459 232.261C221.581 232.261 221.698 232.217 221.79 232.138C221.882 232.059 221.943 231.949 221.96 231.828C221.96 227.043 225.323 223.734 229.236 221.524C229.796 221.212 229.236 220.349 228.729 220.662Z" fill="black"/>
<path d="M229.958 90.589C233.353 84.9088 238.139 79.8106 244.595 77.7196C251.321 75.564 259.06 77.3963 263.295 83.2274C263.522 83.5292 264.028 83.2274 263.802 82.9256C261.831 80.335 259.16 78.362 256.105 77.2392C253.049 76.1163 249.736 75.8903 246.557 76.5879C239.012 78.0753 233.245 83.9064 229.419 90.2872C229.399 90.3204 229.386 90.3573 229.381 90.3956C229.375 90.4339 229.377 90.473 229.387 90.5105C229.396 90.548 229.413 90.5833 229.436 90.6143C229.459 90.6454 229.488 90.6716 229.522 90.6914C229.555 90.7112 229.592 90.7243 229.63 90.7298C229.668 90.7354 229.707 90.7334 229.745 90.7239C229.782 90.7144 229.818 90.6976 229.849 90.6744C229.88 90.6513 229.906 90.6222 229.926 90.589H229.958Z" fill="black"/>
<path d="M209.307 114.538C202.128 115.918 197.86 121.728 197.645 128.884C197.407 136.526 202.818 139.663 209.307 142.045C209.662 142.174 209.813 141.603 209.468 141.473C203.336 139.221 197.979 136.343 198.227 128.884C198.453 121.997 202.538 116.435 209.458 115.11C209.824 115.034 209.673 114.474 209.307 114.538Z" fill="black"/>
<path d="M205.955 144.34C205.338 145.56 204.986 146.895 204.921 148.26C204.857 149.624 205.081 150.987 205.579 152.259C206.078 153.531 206.84 154.683 207.814 155.641C208.789 156.598 209.955 157.338 211.236 157.813C211.592 157.954 211.743 157.382 211.398 157.242C210.194 156.806 209.097 156.117 208.18 155.224C207.263 154.33 206.547 153.251 206.08 152.058C205.613 150.866 205.406 149.588 205.471 148.309C205.537 147.031 205.874 145.78 206.461 144.642C206.623 144.297 206.116 144.006 205.955 144.34Z" fill="black"/>
<path d="M298.206 94.2535C305.449 87.9913 316.734 84.165 326.23 87.3554C336.426 90.8045 336.782 108.082 335.456 116.769C335.402 117.136 335.963 117.298 336.017 116.931C336.959 111.107 336.713 105.153 335.295 99.4271C334.141 94.9326 332.471 89.5542 327.965 87.3877C318.351 82.753 305.331 87.3877 297.84 93.8547C297.549 94.1026 297.969 94.5122 298.25 94.2643L298.206 94.2535Z" fill="black"/>
<path d="M338.69 116.436C343.659 116.263 349.026 118.591 349.727 124.045C349.781 124.411 350.363 124.422 350.32 124.045C349.565 118.246 344.036 115.67 338.69 115.843C338.313 115.843 338.313 116.446 338.69 116.436Z" fill="black"/>
<path d="M261.323 127.505C261.14 128.259 260.245 128.69 259.933 129.412C259.81 129.695 259.746 129.999 259.746 130.307C259.746 130.615 259.81 130.919 259.933 131.202C260.244 131.762 260.701 132.227 261.255 132.55C261.809 132.872 262.439 133.039 263.08 133.034C263.306 133.034 263.306 132.7 263.08 132.678C261.657 132.527 259.706 131.6 260.17 129.779C260.407 128.863 261.452 128.496 261.657 127.623C261.657 127.408 261.366 127.311 261.323 127.537V127.505Z" fill="black"/>
<path d="M288.193 127.386C289.092 127.81 289.81 128.54 290.22 129.445C290.715 130.965 289.347 131.223 288.28 131.6C288.064 131.676 288.161 132.021 288.377 131.945C289.454 131.59 290.694 131.417 290.705 130.048C290.715 128.68 289.411 127.677 288.366 127.095C288.172 126.987 287.989 127.289 288.193 127.397V127.386Z" fill="black"/>
<path d="M273.858 87.0105C273.308 83.0441 273.384 79.2932 276.855 76.6849C279.243 74.7726 282.148 73.6167 285.197 73.3652C291.815 73.0634 297.053 77.8166 298.368 84.1435C298.368 84.3698 298.756 84.2728 298.713 84.0573C297.301 77.0729 291.103 72.0933 283.893 73.1388C280.479 73.6728 277.334 75.3079 274.936 77.7951C272.629 80.4142 273.007 83.8848 273.459 87.1075C273.459 87.3339 273.826 87.2369 273.793 87.0213L273.858 87.0105Z" fill="black"/>
<path d="M246.546 233.251L304.749 233.682C305.06 233.682 305.359 233.558 305.58 233.338C305.8 233.118 305.924 232.819 305.924 232.507C305.924 232.196 305.8 231.897 305.58 231.677C305.359 231.456 305.06 231.333 304.749 231.333L246.546 230.912C246.255 230.94 245.985 231.075 245.789 231.292C245.592 231.508 245.483 231.789 245.483 232.082C245.483 232.374 245.592 232.655 245.789 232.872C245.985 233.088 246.255 233.223 246.546 233.251Z" fill="#E81F71"/>
<path d="M238.656 171.276C240.629 174.024 241.114 177.322 242.439 180.372C243.97 183.908 245.727 187.163 246.686 190.935C246.747 191.16 246.896 191.35 247.098 191.466C247.3 191.581 247.539 191.611 247.764 191.55C247.988 191.488 248.179 191.34 248.294 191.138C248.409 190.936 248.44 190.696 248.378 190.472C247.409 187.063 246.102 183.759 244.476 180.61C242.892 177.236 242.375 173.453 240.165 170.392C239.508 169.476 238.009 170.392 238.645 171.276H238.656Z" fill="#E81F71"/>
<path d="M276.93 275.33C267.122 276.214 257.044 274.909 247.214 274.64C238.528 274.578 229.857 273.926 221.26 272.689C212.95 271.342 204.51 269.024 197.472 264.239C189.356 258.72 184.764 250.464 183.374 240.839C183.32 240.473 182.749 240.623 182.803 241.001C184.096 249.882 188.062 257.761 195.219 263.323C201.816 268.464 209.996 271.148 218.102 272.721C226.806 274.244 235.619 275.058 244.455 275.157C255.168 275.481 266.238 276.882 276.93 275.912C277.296 275.912 277.296 275.297 276.93 275.33Z" fill="#E81F71"/>
<path d="M278.471 273.777C268.674 274.661 258.585 273.357 248.766 273.098C240.081 273.026 231.41 272.374 222.812 271.148C214.502 269.789 206.052 267.472 199.024 262.687C190.897 257.179 186.317 248.912 184.926 239.298C184.872 238.92 184.301 239.082 184.355 239.448C185.638 248.33 189.604 256.209 196.761 261.781C203.357 266.912 211.538 269.595 219.654 271.18C228.358 272.699 237.172 273.51 246.007 273.605C256.721 273.928 267.79 275.33 278.471 274.37C278.849 274.37 278.849 273.745 278.471 273.777Z" fill="#E81F71"/>
<path d="M355.353 228.272C356.431 229.048 366.326 236.689 365.539 247.802C365.108 253.805 361.756 258.128 360.311 259.981C356.783 264.372 352.13 267.724 346.849 269.682C322.059 279.63 287.892 279.878 287.892 279.878C273.567 279.975 255.557 279.598 234.754 277.938L288.646 248.33C288.646 248.33 297.571 242.1 308.349 236.129C320.949 229.134 328.763 225.351 339.132 225.243C344.682 225.211 350.188 226.239 355.353 228.272Z" fill="white"/>
<path d="M261.797 264.918L264.837 278.746C264.837 278.746 247.3 283.176 240.046 274.273C238.656 272.57 236.134 269.218 237.179 267.462C238.225 265.705 242.342 266.836 248.346 266.858C252.9 266.869 257.432 266.215 261.797 264.918Z" fill="#FFCAB0"/>
<path d="M261.161 264.853C262.088 270.587 265.85 275.287 266.949 281.021C267.025 281.387 267.585 281.226 267.521 280.859C266.443 275.179 262.649 270.469 261.722 264.745C261.722 264.368 261.107 264.53 261.161 264.896V264.853Z" fill="#E81F71"/>
<path d="M263.08 264.347C264.151 269.908 265.922 275.311 268.35 280.428C268.512 280.773 269.019 280.428 268.857 280.126C266.453 275.054 264.704 269.698 263.651 264.185C263.576 263.818 263.015 263.98 263.08 264.347Z" fill="#E81F71"/>
<path d="M270.905 275.297C281.586 276.257 292.645 274.856 303.369 274.532C312.205 274.437 321.018 273.626 329.722 272.107C337.828 270.523 346.008 267.796 352.615 262.708C359.772 257.136 363.728 249.268 365.021 240.376C365.021 240.009 364.504 239.847 364.45 240.225C363.092 249.656 358.651 257.847 350.74 263.355C343.637 268.313 335.025 270.695 326.564 272.075C318.116 273.287 309.597 273.935 301.063 274.015C291.093 274.284 280.853 275.61 270.883 274.705C270.506 274.705 270.506 275.265 270.883 275.297H270.905Z" fill="#E81F71"/>
<path d="M269.353 273.745C280.045 274.704 291.104 273.303 301.817 272.98C310.653 272.89 319.466 272.079 328.17 270.555C336.286 268.97 344.467 266.243 351.063 261.156C358.22 255.584 362.187 247.715 363.469 238.823C363.523 238.457 362.963 238.295 362.909 238.672C361.54 248.103 357.099 256.295 349.199 261.803C342.085 266.761 333.473 269.154 325.023 270.522C316.572 271.74 308.049 272.388 299.511 272.463C289.541 272.732 279.301 274.058 269.331 273.163C268.954 273.163 268.954 273.713 269.331 273.745H269.353Z" fill="#E81F71"/>
<path d="M274.936 192.315C275.593 191.959 277.156 193.393 278.094 194.675C280.487 197.909 280.455 201.843 280.142 204.3C290.618 207.857 300.912 212.751 306.312 214.572C309.111 215.423 311.854 216.449 314.525 217.644C319.095 219.8 320.819 221.352 321.434 220.877C322.512 219.929 318.513 213.645 314.32 206.973C311.205 202.026 306.775 194.956 301.483 186.247L300.642 164.399C304.63 165.024 306.279 169.519 309.06 170.068C310.554 170.505 311.835 171.476 312.66 172.795C316.699 177.934 319.93 183.658 322.242 189.771C329.323 203.697 332.859 210.67 334.098 216.2C335.661 223.098 337.504 231.235 333.247 235.126C329.938 238.155 324.506 237.131 320.313 236.431C310.181 234.717 285.639 216.469 278.773 210.563C276.617 208.698 274.839 206.876 274.656 200.862C274.699 200.108 274.332 192.638 274.936 192.315Z" fill="#FFCAB0"/>
<path d="M302.593 190.978C298.452 182.743 297.634 173.231 300.308 164.41C302.401 164.53 304.438 165.127 306.265 166.154C308.092 167.182 309.66 168.612 310.849 170.338L302.593 190.978Z" fill="#8C063D"/>
<path d="M299.414 166.124C300.319 166.174 301.224 166.239 302.13 166.318C302.259 166.318 302.259 166.124 302.13 166.113C301.224 166.037 300.319 165.973 299.414 165.93C299.284 165.93 299.284 166.113 299.414 166.124Z" fill="#E81F71"/>
<path d="M298.648 168.301L300.621 168.581C300.739 168.581 300.793 168.419 300.621 168.398L298.638 168.107C298.519 168.107 298.465 168.279 298.638 168.301H298.648Z" fill="#E81F71"/>
<path d="M298.163 170.499C298.799 170.575 299.446 170.64 300.093 170.683C300.222 170.683 300.222 170.499 300.093 170.489C299.446 170.489 298.799 170.381 298.163 170.305C298.034 170.305 298.034 170.489 298.163 170.499Z" fill="#E81F71"/>
<path d="M297.678 172.547L299.748 172.343C299.877 172.343 299.877 172.127 299.748 172.138L297.678 172.353C297.56 172.353 297.549 172.558 297.678 172.547Z" fill="#E81F71"/>
<path d="M297.15 174.8L299.715 174.434C299.834 174.434 299.78 174.229 299.715 174.25L297.15 174.606C297.032 174.606 297.075 174.822 297.15 174.8Z" fill="#E81F71"/>
<path d="M297.571 176.988L300.017 176.74C300.136 176.74 300.136 176.525 300.017 176.535L297.571 176.794C297.441 176.794 297.441 176.999 297.571 176.988Z" fill="#E81F71"/>
<path d="M297.959 179.327C298.821 179.23 299.672 179.111 300.524 178.982C300.653 178.982 300.599 178.777 300.524 178.788C299.683 178.928 298.842 179.036 298.002 179.133C297.883 179.133 297.883 179.349 298.002 179.327H297.959Z" fill="#E81F71"/>
<path d="M298.228 181.72L300.772 181.418C300.901 181.418 300.901 181.213 300.772 181.224L298.228 181.526C298.109 181.526 298.109 181.731 298.228 181.72Z" fill="#E81F71"/>
<path d="M299.252 183.822C299.974 183.703 300.685 183.606 301.408 183.52C301.526 183.52 301.526 183.315 301.408 183.326C300.664 183.412 299.931 183.509 299.252 183.638C299.123 183.638 299.176 183.843 299.252 183.822Z" fill="#E81F71"/>
<path d="M300.351 185.427C301.163 185.291 301.972 185.172 302.776 185.072C302.906 185.072 302.906 184.856 302.776 184.878C301.947 184.975 301.117 185.104 300.297 185.233C300.168 185.233 300.222 185.438 300.297 185.427H300.351Z" fill="#E81F71"/>
<path d="M301.515 187.303C302.162 187.227 302.82 187.163 303.466 187.12C303.488 187.113 303.507 187.099 303.52 187.08C303.533 187.062 303.54 187.04 303.54 187.017C303.54 186.995 303.533 186.972 303.52 186.954C303.507 186.936 303.488 186.922 303.466 186.915C302.82 186.915 302.162 187.033 301.515 187.109C301.386 187.109 301.386 187.314 301.515 187.303Z" fill="#E81F71"/>
<path d="M310.601 169.562C308.629 172.364 308.069 175.878 306.969 179.079C305.541 183.139 303.845 187.1 301.893 190.935C301.386 191.937 302.895 192.832 303.412 191.819C305.02 188.664 306.459 185.426 307.724 182.118C309.157 178.357 309.815 173.711 312.132 170.413C312.779 169.486 311.259 168.613 310.612 169.529L310.601 169.562Z" fill="#E81F71"/>
<path d="M210.341 231.02C211.419 243.437 227.35 245.883 235.261 238.371C236.339 237.293 234.69 235.676 233.601 236.711C227.285 242.714 213.586 241.475 212.691 231.02C212.562 229.522 210.212 229.511 210.341 231.02Z" fill="#DADADA"/>
<path d="M338.011 231.02C337.116 241.475 323.406 242.714 317.101 236.711C316.023 235.633 314.342 237.325 315.441 238.371C323.341 245.916 339.293 243.437 340.36 231.02C340.49 229.511 338.14 229.522 338.011 231.02Z" fill="#DADADA"/>
<path d="M275.044 208.547C275.141 211.619 277.124 213.936 279.484 215.995C282.701 218.759 286.198 221.179 289.918 223.216C290.274 223.421 290.608 222.915 290.252 222.71C285.046 219.81 275.884 214.798 275.69 208.547C275.69 208.17 275.033 208.159 275.044 208.547Z" fill="black"/>
<path d="M275.022 208.547C274.828 214.799 265.667 219.811 260.471 222.71C260.116 222.915 260.471 223.421 260.795 223.216C266.324 220.134 275.464 215.165 275.68 208.547C275.68 208.17 275.044 208.17 275.022 208.547Z" fill="black"/>
<path d="M275.443 186.311C282.33 189.545 283.472 194.816 283.44 201.52C283.44 202.005 284.216 202.005 284.227 201.52C284.227 194.46 282.955 189.006 275.841 185.665C275.389 185.46 274.99 186.107 275.443 186.311Z" fill="black"/>
<path d="M274.796 185.665C267.682 189.006 266.378 194.46 266.41 201.52C266.41 202.005 267.208 202.005 267.197 201.52C267.197 194.816 268.275 189.534 275.195 186.311C275.647 186.107 275.248 185.46 274.796 185.665Z" fill="black"/>
<path d="M321.412 221.05C325.325 223.206 328.731 226.568 328.688 231.354C328.705 231.474 328.766 231.584 328.858 231.664C328.95 231.743 329.067 231.787 329.189 231.787C329.31 231.787 329.428 231.743 329.52 231.664C329.612 231.584 329.672 231.474 329.69 231.354C329.69 226.213 326.144 222.559 321.919 220.188C321.862 220.154 321.799 220.133 321.734 220.124C321.669 220.115 321.603 220.118 321.54 220.135C321.476 220.151 321.416 220.18 321.364 220.22C321.312 220.259 321.268 220.309 321.234 220.366C321.201 220.422 321.179 220.485 321.17 220.55C321.161 220.615 321.165 220.681 321.181 220.745C321.198 220.808 321.227 220.868 321.266 220.92C321.306 220.973 321.356 221.017 321.412 221.05Z" fill="black"/>
<path d="M191.943 223.701C188.176 224.103 184.595 225.542 181.597 227.858C178.599 230.174 176.303 233.276 174.962 236.819C173.622 240.361 173.29 244.207 174.005 247.927C174.719 251.647 176.451 255.096 179.009 257.89C179.763 258.742 181.003 257.492 180.259 256.651C177.923 254.111 176.337 250.974 175.676 247.587C175.015 244.2 175.306 240.696 176.517 237.465C177.727 234.233 179.81 231.4 182.533 229.281C185.256 227.162 188.513 225.838 191.943 225.458C193.021 225.318 193.021 223.551 191.943 223.701Z" fill="white"/>
<path d="M356.744 225.458C360.17 225.845 363.422 227.174 366.139 229.296C368.856 231.418 370.933 234.251 372.138 237.482C373.344 240.712 373.631 244.213 372.969 247.596C372.306 250.98 370.719 254.114 368.384 256.651C367.63 257.492 368.869 258.742 369.624 257.89C372.18 255.099 373.912 251.655 374.629 247.939C375.346 244.223 375.019 240.381 373.685 236.84C372.351 233.298 370.062 230.196 367.071 227.876C364.08 225.557 360.506 224.112 356.744 223.701C355.666 223.551 355.666 225.318 356.744 225.458Z" fill="white"/>
<path d="M279.021 124.217C279.188 124.632 279.45 125.001 279.786 125.295C280.144 125.51 280.554 125.623 280.972 125.623C281.389 125.623 281.799 125.51 282.157 125.295C282.501 124.982 282.795 124.618 283.031 124.217C282.982 124.72 282.792 125.199 282.481 125.597C282.082 125.967 281.559 126.172 281.015 126.172C280.471 126.172 279.948 125.967 279.549 125.597C279.2 125.224 279.011 124.729 279.021 124.217Z" fill="black"/>
<path d="M267.143 124.217C267.31 124.635 267.576 125.005 267.919 125.295C268.268 125.531 268.686 125.641 269.105 125.608C269.524 125.626 269.937 125.504 270.28 125.263C270.623 124.947 270.921 124.584 271.164 124.185C271.119 124.697 270.932 125.186 270.625 125.597C270.226 125.967 269.702 126.172 269.159 126.172C268.615 126.172 268.092 125.967 267.693 125.597C267.336 125.227 267.139 124.731 267.143 124.217Z" fill="black"/>
<path d="M272.209 132.818C272.486 133.356 272.884 133.821 273.373 134.176C273.885 134.503 274.479 134.679 275.087 134.683C275.692 134.677 276.284 134.498 276.79 134.166C277.282 133.815 277.684 133.353 277.965 132.818C277.876 133.444 277.566 134.018 277.092 134.435C276.532 134.867 275.836 135.085 275.13 135.05C274.409 135.101 273.694 134.882 273.125 134.435C272.639 134.021 272.315 133.448 272.209 132.818Z" fill="#686868"/>
<path d="M336.905 8C332.405 19 336.305 31.8 344.105 40.1C349.705 46.1 362.405 55.6 371.505 54C372.705 53.8 373.805 53.4 374.805 52.8C381.105 49.1 382.005 38.8 380.205 32.5C378.305 25.6 372.705 20 365.905 18C361.305 16.6 355.505 16.4 353.305 12.1C351.705 8.89999 352.705 4.5 350.405 1.8C349.305 0.599995 347.705 0 346.105 0C344.805 0 343.505 0.4 342.405 1C339.805 2.5 338.105 5.2 336.905 8Z" fill="#7175DA"/>
<path opacity="0.5" d="M336.905 8C332.405 19 336.305 31.8 344.105 40.1C349.705 46.1 362.405 55.6 371.505 54C372.705 53.8 373.805 53.4 374.805 52.8C381.105 49.1 382.005 38.8 380.205 32.5C378.305 25.6 372.705 20 365.905 18C361.305 16.6 355.505 16.4 353.305 12.1C351.705 8.89999 352.705 4.5 350.405 1.8C349.305 0.599995 347.705 0 346.105 0C344.805 0 343.505 0.4 342.405 1C339.805 2.5 338.105 5.2 336.905 8Z" fill="#7175DA"/>
<path opacity="0.2" d="M346.105 0C344.805 3.1 344.605 6.6 345.305 9.8C346.205 14 348.405 17.8 351.105 21C353.805 24.2 357.005 27 360.205 29.8C363.305 32.6 366.505 35.5 368.905 39C370.505 41.3 371.805 43.7 372.805 46.3C373.505 48.2 373.605 51.2 374.905 52.8C381.205 49.1 382.105 38.8 380.305 32.5C378.405 25.6 372.805 20 366.005 18C361.405 16.6 355.605 16.4 353.405 12.1C351.805 8.89999 352.805 4.5 350.505 1.8C349.405 0.599995 347.805 0 346.105 0Z" fill="#7578DC"/>
<path d="M356.205 26.3C365.805 32.8 372.605 43.4 374.605 55.1" stroke="white" stroke-miterlimit="10" stroke-linecap="round" stroke-linejoin="round"/>
<path d="M319.894 50.375C316.239 47.1806 314.047 42.8245 312 38.4684C314.924 39.9205 318.286 40.6465 321.502 41.5177C325.741 42.6793 336.558 46.1641 334.365 52.553C334.365 52.6982 334.219 52.6982 334.219 52.8434C337.435 54.7311 340.651 56.7639 343.721 58.9419C342.113 55.6023 344.159 48.923 345.329 46.5997C347.522 42.3889 351.322 39.1944 354.977 36C354.246 39.1944 354.392 42.5341 354.392 45.8737C354.392 50.2298 353.661 61.5556 346.791 60.9748C346.645 60.9748 346.644 60.9748 346.498 60.9748C350.299 63.8788 354.1 66.928 357.608 70.2677C356 66.928 357.9 60.2487 359.216 57.7803C361.409 53.5694 365.209 50.375 368.864 47.1806C368.133 50.375 368.279 53.7146 368.279 57.0543C368.279 61.4104 367.548 72.7361 360.678 72.1553C360.239 72.1553 359.801 72.0101 359.362 71.8649C362.724 75.2045 366.086 78.6894 369.156 82.3194C367.987 78.8346 369.887 72.7361 371.056 70.4129C373.249 66.202 377.05 63.0076 380.704 59.8131C379.973 63.0076 380.12 66.3472 380.12 69.6869C380.12 74.0429 379.389 85.3687 372.518 84.7879C371.934 84.7879 371.495 84.6427 371.056 84.3523C373.98 87.9823 376.757 91.9028 379.389 95.8232C378.219 92.3384 380.12 86.2399 381.289 84.0619C383.482 79.851 387.282 76.6566 390.937 73.4621C390.206 76.6566 390.352 79.9962 390.352 83.3359C390.352 87.6919 389.621 99.0177 382.751 98.4369C381.874 98.4369 381.143 98.1465 380.704 97.7109C390.791 113.828 397.515 132.124 400 150.855L398.977 151C396.638 132.559 390.06 114.7 380.12 98.8725C380.12 99.1629 379.973 99.4533 379.973 99.8889C377.927 106.423 367.11 102.938 363.017 101.341C359.947 100.179 356.877 98.8725 353.515 98.2917C357.754 96.1136 362.14 93.7904 366.963 93.3548C369.302 93.0644 374.711 93.5 377.927 95.3876C375.734 92.048 373.249 88.7083 370.764 85.5139C370.764 85.9495 370.764 86.3851 370.618 86.8207C368.571 93.3548 357.754 89.87 353.661 88.2727C350.591 87.1111 347.522 85.8043 344.159 85.2235C348.399 83.0455 352.784 80.7222 357.608 80.2866C359.801 79.9962 364.625 80.4318 367.841 81.8838C365.063 78.5442 361.993 75.3498 358.777 72.3005C358.924 72.8813 358.924 73.6073 358.777 74.4785C356.731 81.0126 345.914 77.5278 341.821 75.9306C338.751 74.7689 335.681 73.4621 332.319 72.8813C336.558 70.7033 340.943 68.3801 345.767 67.9444C347.814 67.7992 352.492 68.0896 355.708 69.3965C352.492 66.4924 349.13 63.7336 345.621 61.12C346.06 61.846 346.06 62.7172 345.767 63.8788C343.721 70.4129 332.904 66.928 328.811 65.3308C325.741 64.1692 322.671 62.8624 319.309 62.2816C323.548 60.1035 327.934 57.7803 332.757 57.3447C334.658 57.1995 338.605 57.3447 341.674 58.5063C339.189 56.9091 336.704 55.3119 334.219 53.8598C330.857 57.4899 322.525 52.6982 319.894 50.375Z" fill="#1A1C6C"/>
<defs>
<linearGradient id="paint0_linear" x1="90.7157" y1="134.478" x2="-81.8506" y2="281.599" gradientUnits="userSpaceOnUse">
<stop stop-color="#FB939E"/>
<stop offset="1" stop-color="#FCC58B"/>
</linearGradient>
<linearGradient id="paint1_linear" x1="10.5" y1="114" x2="10.5" y2="244" gradientUnits="userSpaceOnUse">
<stop stop-color="#7F82E3"/>
<stop offset="1" stop-color="#2D31AC" stop-opacity="0"/>
</linearGradient>
<linearGradient id="paint2_linear" x1="-8.83768" y1="221.97" x2="83.9587" y2="221.97" gradientUnits="userSpaceOnUse">
<stop stop-color="#0E655F"/>
<stop offset="1" stop-color="#22B94D"/>
</linearGradient>
</defs>
</svg>
